<svg width="392" height="226" viewBox="0 0 392 226" fill="none" xmlns="http://www.w3.org/2000/svg">
<path d="M32.1641 137.422C32.9453 138.484 33.4766 139.719 33.7578 141.125C34.0391 142.5 34.0234 143.547 33.7109 144.266C33.6484 144.359 33.5703 144.438 33.4766 144.5C33.4141 144.531 33.3516 144.547 33.2891 144.547H33.1484H21.6641V174.594C21.6953 174.906 21.6016 175.109 21.3828 175.203C20.6641 175.547 19.6016 175.562 18.1953 175.25C16.8203 174.938 15.6016 174.344 14.5391 173.469C14.0391 173.062 13.6484 172.438 13.3672 171.594C13.0859 170.75 12.9297 170.016 12.8984 169.391V168.453V144.547H0.617188V135.781H27.6641C27.9141 135.781 28.2266 135.797 28.6016 135.828C28.9766 135.828 29.5703 135.969 30.3828 136.25C31.1953 136.531 31.7891 136.922 32.1641 137.422ZM65.7734 161.375L74.0234 175.297H63.5703L56.4453 163.062H48.3828V174.547C48.4453 174.859 48.3516 175.062 48.1016 175.156C47.3828 175.531 46.3359 175.547 44.9609 175.203C43.5859 174.891 42.3516 174.266 41.2578 173.328C40.7578 172.891 40.3672 172.219 40.0859 171.312C39.8359 170.438 39.6953 169.672 39.6641 169.016L39.6172 167.984V135.781H60.0547C60.2422 135.781 60.4922 135.812 60.8047 135.875C61.1172 135.906 61.7109 136.031 62.5859 136.25C63.4922 136.469 64.3516 136.75 65.1641 137.094C65.9766 137.438 66.8672 137.953 67.8359 138.641C68.8359 139.328 69.6797 140.125 70.3672 141.031C71.0859 141.906 71.6797 143.062 72.1484 144.5C72.6484 145.906 72.8984 147.453 72.8984 149.141C72.8984 154.859 70.5234 158.938 65.7734 161.375ZM59.8672 153.922C59.9922 153.922 60.1328 153.906 60.2891 153.875C60.4766 153.844 60.7891 153.75 61.2266 153.594C61.6953 153.406 62.1016 153.172 62.4453 152.891C62.8203 152.578 63.1484 152.109 63.4297 151.484C63.7109 150.859 63.8516 150.141 63.8516 149.328C63.8516 148.484 63.7109 147.75 63.4297 147.125C63.1484 146.5 62.8203 146.047 62.4453 145.766C62.0703 145.453 61.6797 145.219 61.2734 145.062C60.8984 144.875 60.5703 144.766 60.2891 144.734L59.8672 144.688H48.4297V153.922H59.8672ZM104.586 162.875H90.3828V174.453C90.4141 174.766 90.3203 174.984 90.1016 175.109C89.3828 175.484 88.3359 175.5 86.9609 175.156C85.5859 174.812 84.3516 174.172 83.2578 173.234C82.7578 172.797 82.3672 172.141 82.0859 171.266C81.8359 170.391 81.6953 169.609 81.6641 168.922L81.6172 167.938V150.5L90.3828 145.578V154.25H99.6172L93.9453 144.547L81.6172 144.594V135.828L95.4453 135.781C96.0391 135.781 96.6016 135.844 97.1328 135.969C97.7891 136.094 98.4609 136.469 99.1484 137.094C99.8359 137.719 100.352 138.312 100.695 138.875L101.258 139.719L111.945 157.953C112.883 159.641 113.352 161.219 113.352 162.688V175.344H104.586V162.875ZM127.602 175.156C126.883 175.562 125.836 175.594 124.461 175.25C123.086 174.906 121.852 174.266 120.758 173.328C120.258 172.891 119.867 172.219 119.586 171.312C119.336 170.438 119.195 169.672 119.164 169.016L119.117 167.984V135.781H127.883V174.547C127.945 174.859 127.852 175.062 127.602 175.156ZM145.555 166.672H164.305V175.438H144.008C143.164 175.5 142.227 175.344 141.195 174.969C140.164 174.625 139.227 174.078 138.383 173.328C137.883 172.891 137.492 172.219 137.211 171.312C136.961 170.438 136.82 169.672 136.789 169.016L136.742 167.984V135.781H145.555V166.672ZM200.398 155.422C202.586 157.453 203.68 160.078 203.68 163.297C203.68 164.828 203.445 166.234 202.977 167.516C202.508 168.797 201.898 169.844 201.148 170.656C200.398 171.469 199.57 172.188 198.664 172.812C197.758 173.438 196.852 173.906 195.945 174.219C195.039 174.562 194.211 174.828 193.461 175.016C192.711 175.203 192.102 175.328 191.633 175.391L190.93 175.438H179.07H170.258V150.078L179.07 144.969V151.484H190.742C190.867 151.484 191.008 151.469 191.164 151.438C191.352 151.406 191.664 151.312 192.102 151.156C192.57 151 192.977 150.797 193.32 150.547C193.664 150.297 193.977 149.906 194.258 149.375C194.539 148.812 194.68 148.188 194.68 147.5C194.68 146.781 194.539 146.156 194.258 145.625C194.008 145.062 193.68 144.656 193.273 144.406C192.898 144.156 192.508 143.953 192.102 143.797C191.727 143.641 191.414 143.547 191.164 143.516L190.742 143.469H170.258V135.781H190.93C191.117 135.781 191.367 135.797 191.68 135.828C191.992 135.859 192.586 135.984 193.461 136.203C194.336 136.391 195.164 136.641 195.945 136.953C196.758 137.234 197.648 137.672 198.617 138.266C199.617 138.859 200.461 139.547 201.148 140.328C201.867 141.078 202.461 142.078 202.93 143.328C203.43 144.547 203.68 145.891 203.68 147.359C203.68 150.672 202.586 153.359 200.398 155.422ZM190.742 167.469C190.867 167.469 191.008 167.453 191.164 167.422C191.352 167.391 191.664 167.297 192.102 167.141C192.57 166.984 192.977 166.781 193.32 166.531C193.664 166.281 193.977 165.891 194.258 165.359C194.539 164.797 194.68 164.156 194.68 163.438C194.68 162.656 194.523 161.984 194.211 161.422C193.93 160.859 193.555 160.453 193.086 160.203C192.648 159.922 192.258 159.734 191.914 159.641C191.602 159.516 191.289 159.422 190.977 159.359H190.93H179.07V167.469H190.742ZM220.273 166.672H239.023V175.438H218.727C217.883 175.5 216.945 175.344 215.914 174.969C214.883 174.625 213.945 174.078 213.102 173.328C212.602 172.891 212.211 172.219 211.93 171.312C211.68 170.438 211.539 169.672 211.508 169.016L211.461 167.984V135.781H220.273V166.672ZM267.945 162.875H253.742V174.453C253.773 174.766 253.68 174.984 253.461 175.109C252.742 175.484 251.695 175.5 250.32 175.156C248.945 174.812 247.711 174.172 246.617 173.234C246.117 172.797 245.727 172.141 245.445 171.266C245.195 170.391 245.055 169.609 245.023 168.922L244.977 167.938V150.5L253.742 145.578V154.25H262.977L257.305 144.547L244.977 144.594V135.828L258.805 135.781C259.398 135.781 259.961 135.844 260.492 135.969C261.148 136.094 261.82 136.469 262.508 137.094C263.195 137.719 263.711 138.312 264.055 138.875L264.617 139.719L275.305 157.953C276.242 159.641 276.711 161.219 276.711 162.688V175.344H267.945V162.875ZM312.852 135.781L297.383 166.625H312.852V175.438H282.477H282.383L298.367 144.594H282.477V135.781H312.852ZM348.945 144.547H330.195V151.203H341.773V160.016H330.195V166.672H348.945V175.438H328.648C327.805 175.5 326.867 175.344 325.836 174.969C324.805 174.625 323.867 174.078 323.023 173.328C322.523 172.891 322.133 172.219 321.852 171.312C321.602 170.438 321.461 169.672 321.43 169.016L321.383 167.984V135.781H329.68H330.195H348.945V144.547ZM383.539 161.375L391.789 175.297H381.336L374.211 163.062H366.148V174.547C366.211 174.859 366.117 175.062 365.867 175.156C365.148 175.531 364.102 175.547 362.727 175.203C361.352 174.891 360.117 174.266 359.023 173.328C358.523 172.891 358.133 172.219 357.852 171.312C357.602 170.438 357.461 169.672 357.43 169.016L357.383 167.984V135.781H377.82C378.008 135.781 378.258 135.812 378.57 135.875C378.883 135.906 379.477 136.031 380.352 136.25C381.258 136.469 382.117 136.75 382.93 137.094C383.742 137.438 384.633 137.953 385.602 138.641C386.602 139.328 387.445 140.125 388.133 141.031C388.852 141.906 389.445 143.062 389.914 144.5C390.414 145.906 390.664 147.453 390.664 149.141C390.664 154.859 388.289 158.938 383.539 161.375ZM377.633 153.922C377.758 153.922 377.898 153.906 378.055 153.875C378.242 153.844 378.555 153.75 378.992 153.594C379.461 153.406 379.867 153.172 380.211 152.891C380.586 152.578 380.914 152.109 381.195 151.484C381.477 150.859 381.617 150.141 381.617 149.328C381.617 148.484 381.477 147.75 381.195 147.125C380.914 146.5 380.586 146.047 380.211 145.766C379.836 145.453 379.445 145.219 379.039 145.062C378.664 144.875 378.336 144.766 378.055 144.734L377.633 144.688H366.195V153.922H377.633ZM79.0859 200.312H69.5703C68.6016 198.594 67.2578 197.234 65.5391 196.234C63.8516 195.203 61.9922 194.688 59.9609 194.688C56.9609 194.688 54.3828 195.75 52.2266 197.875C50.1016 200 49.0391 202.578 49.0391 205.609C49.0391 208.641 50.1016 211.219 52.2266 213.344C54.3828 215.469 56.9609 216.531 59.9609 216.531C61.8984 216.531 63.6797 216.078 65.3047 215.172C66.9609 214.234 68.2891 212.969 69.2891 211.375H78.9453C77.6953 215.5 75.3203 218.875 71.8203 221.5C68.3516 224.125 64.3984 225.438 59.9609 225.438C56.3672 225.438 53.0391 224.547 49.9766 222.766C46.9453 221.016 44.5391 218.625 42.7578 215.594C41.0078 212.531 40.1328 209.203 40.1328 205.609C40.1328 202.016 41.0078 198.703 42.7578 195.672C44.5391 192.609 46.9453 190.203 49.9766 188.453C53.0391 186.672 56.3672 185.781 59.9609 185.781C64.4922 185.781 68.5234 187.141 72.0547 189.859C75.5859 192.578 77.9297 196.062 79.0859 200.312ZM92.6797 188.453C95.7422 186.672 99.0703 185.781 102.664 185.781C106.258 185.781 109.57 186.672 112.602 188.453C115.633 190.203 118.039 192.609 119.82 195.672C121.602 198.703 122.492 202.016 122.492 205.609C122.492 209.203 121.602 212.516 119.82 215.547C118.039 218.578 115.633 220.984 112.602 222.766C109.57 224.547 106.258 225.438 102.664 225.438C99.0703 225.438 95.7422 224.547 92.6797 222.766C89.6484 220.984 87.2422 218.578 85.4609 215.547C83.7109 212.516 82.8359 209.203 82.8359 205.609C82.8359 202.016 83.7109 198.703 85.4609 195.672C87.2422 192.609 89.6484 190.203 92.6797 188.453ZM110.398 213.391C112.555 211.234 113.633 208.641 113.633 205.609C113.633 202.578 112.555 199.984 110.398 197.828C108.273 195.672 105.68 194.594 102.617 194.594C99.5859 194.594 96.9922 195.672 94.8359 197.828C92.7109 199.984 91.6484 202.578 91.6484 205.609C91.6484 208.641 92.7109 211.234 94.8359 213.391C96.9922 215.547 99.5859 216.625 102.617 216.625C105.68 216.625 108.273 215.547 110.398 213.391ZM136.602 216.672H155.352V225.438H135.055C134.211 225.5 133.273 225.344 132.242 224.969C131.211 224.625 130.273 224.078 129.43 223.328C128.93 222.891 128.539 222.219 128.258 221.312C128.008 220.438 127.867 219.672 127.836 219.016L127.789 217.984V185.781H136.602V216.672ZM168.852 188.453C171.914 186.672 175.242 185.781 178.836 185.781C182.43 185.781 185.742 186.672 188.773 188.453C191.805 190.203 194.211 192.609 195.992 195.672C197.773 198.703 198.664 202.016 198.664 205.609C198.664 209.203 197.773 212.516 195.992 215.547C194.211 218.578 191.805 220.984 188.773 222.766C185.742 224.547 182.43 225.438 178.836 225.438C175.242 225.438 171.914 224.547 168.852 222.766C165.82 220.984 163.414 218.578 161.633 215.547C159.883 212.516 159.008 209.203 159.008 205.609C159.008 202.016 159.883 198.703 161.633 195.672C163.414 192.609 165.82 190.203 168.852 188.453ZM186.57 213.391C188.727 211.234 189.805 208.641 189.805 205.609C189.805 202.578 188.727 199.984 186.57 197.828C184.445 195.672 181.852 194.594 178.789 194.594C175.758 194.594 173.164 195.672 171.008 197.828C168.883 199.984 167.82 202.578 167.82 205.609C167.82 208.641 168.883 211.234 171.008 213.391C173.164 215.547 175.758 216.625 178.789 216.625C181.852 216.625 184.445 215.547 186.57 213.391ZM222.57 185.828H231.336V212.828V225.391L212.727 207.062V224.5C212.758 224.812 212.664 225.016 212.445 225.109C211.727 225.516 210.664 225.547 209.258 225.203C207.883 224.859 206.664 224.219 205.602 223.281C205.102 222.844 204.711 222.172 204.43 221.266C204.18 220.391 204.039 219.625 204.008 218.969L203.961 217.938V185.828L222.57 204.156V185.828ZM264.758 185.781H273.805V193.094C273.805 195.375 273.367 197.562 272.492 199.656C271.648 201.656 270.461 203.438 268.93 205C267.367 206.562 265.586 207.781 263.586 208.656C262.961 208.906 262.32 209.141 261.664 209.359V224.547C261.695 224.859 261.586 225.078 261.336 225.203C260.586 225.578 259.508 225.594 258.102 225.25C256.695 224.906 255.445 224.281 254.352 223.375C253.82 222.906 253.414 222.219 253.133 221.312C252.852 220.438 252.695 219.672 252.664 219.016L252.617 217.984V209.406C251.898 209.188 251.211 208.938 250.555 208.656C248.523 207.781 246.742 206.562 245.211 205C243.68 203.438 242.492 201.656 241.648 199.656C240.773 197.562 240.336 195.375 240.336 193.094V185.781H249.383V193.094C249.383 195.25 250.133 197.094 251.633 198.625C253.133 200.156 254.945 200.922 257.07 200.922C259.195 200.922 261.008 200.156 262.508 198.625C264.008 197.094 264.758 195.25 264.758 193.094V185.781ZM314.867 224.547C314.898 224.859 314.789 225.062 314.539 225.156C313.82 225.562 312.773 225.594 311.398 225.25C310.023 224.906 308.805 224.266 307.742 223.328C307.211 222.891 306.805 222.219 306.523 221.312C306.273 220.438 306.133 219.672 306.102 219.016L306.055 217.984V194.688H299.211L306.055 185.781H314.867V224.547ZM352.977 224.547C353.008 224.891 352.914 225.109 352.695 225.203C351.977 225.578 350.914 225.594 349.508 225.25C348.133 224.938 346.914 224.312 345.852 223.375C345.352 222.938 344.961 222.266 344.68 221.359C344.398 220.453 344.242 219.672 344.211 219.016V217.984V209.969H327.102C326.82 209.969 326.445 209.953 325.977 209.922C325.539 209.891 324.836 209.734 323.867 209.453C322.898 209.172 322.195 208.766 321.758 208.234C320.414 206.672 319.711 204.922 319.648 202.984V185.734H328.461V200.875H344.211V185.734H352.977V224.547Z" fill="#2DB12D"/>
<path d="M218.779 51.3067C218.779 52.8025 218.184 54.237 217.127 55.2948C216.069 56.3525 214.635 56.9467 213.139 56.9467C211.643 56.9467 210.208 56.3525 209.151 55.2948C208.093 54.237 207.499 52.8025 207.499 51.3067C207.499 49.8108 208.093 48.3763 209.151 47.3186C210.208 46.2609 211.643 45.6667 213.139 45.6667C214.635 45.6667 216.069 46.2609 217.127 47.3186C218.184 48.3763 218.779 49.8108 218.779 51.3067ZM264 64C264 99.344 235.344 128 200 128C198.133 128 196.284 127.922 194.453 127.765C205.221 117.685 208.043 100.773 208.043 100.773L190.837 95.1573C190.837 95.1573 182.843 112.384 160.976 114.731C153.199 108.758 146.902 101.076 142.571 92.2787C138.239 83.4815 135.991 73.8055 136 64C136 28.656 164.656 0 200 0C235.344 0 264 28.656 264 64ZM182.016 35.232C175.456 34.5387 171.963 30.8053 171.189 24.4C170.432 30.5813 167.083 34.4267 160.352 35.232C166.581 36.4427 170.112 40.128 171.184 46.0693C171.077 39.9147 174.736 36.336 182.016 35.232ZM223.541 63.0027C229.461 49.76 225.632 40.3253 216.965 29.6907C206.069 37.6907 196.917 45.8133 197.573 57.152C190.24 60.752 185.515 63.584 180.789 69.36L195.611 75.2427L193.648 82L213.045 87.664L215.408 81.3653L230.475 84.8373C230.549 76.8587 228.448 68.32 223.541 63.0027Z" fill="#2DB12D"/>
</svg>
